<svg xmlns="http://www.w3.org/2000/svg" xmlns:xlink="http://www.w3.org/1999/xlink" id="visual" viewBox="0 0 4000 200" width="4000" height="200"><path d="M0 164L21.5 152.2C43 140.3 86 116.7 129 103.7C172 90.7 215 88.3 258 95.7C301 103 344 120 387 119.7C430 119.3 473 101.7 516 92.7C559 83.7 602 83.3 645 95.3C688 107.3 731 131.7 774 141C817 150.3 860 144.7 903 130.8C946 117 989 95 1032 82.7C1075 70.3 1118 67.7 1161 70C1204 72.3 1247 79.7 1290 87.8C1333 96 1376 105 1419 108.3C1462 111.7 1505 109.3 1548 96.5C1591 83.7 1634 60.3 1677 64.5C1720 68.7 1763 100.3 1806 115.8C1849 131.3 1892 130.7 1935.2 122.8C1978.3 115 2021.7 100 2064.8 98.7C2108 97.3 2151 109.7 2194 120.7C2237 131.7 2280 141.3 2323 147.3C2366 153.3 2409 155.7 2452 142.7C2495 129.7 2538 101.3 2581 97C2624 92.7 2667 112.3 2710 118C2753 123.7 2796 115.3 2839 119C2882 122.7 2925 138.3 2968 127.5C3011 116.7 3054 79.3 3097 76.5C3140 73.7 3183 105.3 3226 118C3269 130.7 3312 124.3 3355 109C3398 93.7 3441 69.3 3484 70.2C3527 71 3570 97 3613 111C3656 125 3699 127 3742 134.2C3785 141.3 3828 153.7 3871 152.3C3914 151 3957 136 3978.5 128.5L4000 121L4000 0L3978.5 0C3957 0 3914 0 3871 0C3828 0 3785 0 3742 0C3699 0 3656 0 3613 0C3570 0 3527 0 3484 0C3441 0 3398 0 3355 0C3312 0 3269 0 3226 0C3183 0 3140 0 3097 0C3054 0 3011 0 2968 0C2925 0 2882 0 2839 0C2796 0 2753 0 2710 0C2667 0 2624 0 2581 0C2538 0 2495 0 2452 0C2409 0 2366 0 2323 0C2280 0 2237 0 2194 0C2151 0 2108 0 2064.8 0C2021.7 0 1978.3 0 1935.2 0C1892 0 1849 0 1806 0C1763 0 1720 0 1677 0C1634 0 1591 0 1548 0C1505 0 1462 0 1419 0C1376 0 1333 0 1290 0C1247 0 1204 0 1161 0C1118 0 1075 0 1032 0C989 0 946 0 903 0C860 0 817 0 774 0C731 0 688 0 645 0C602 0 559 0 516 0C473 0 430 0 387 0C344 0 301 0 258 0C215 0 172 0 129 0C86 0 43 0 21.5 0L0 0Z" fill="#0F0F0F" stroke-linecap="round" stroke-linejoin="miter"></path></svg>