<svg xmlns="http://www.w3.org/2000/svg" xmlns:xlink="http://www.w3.org/1999/xlink" id="visual" viewBox="0 0 4000 200" width="4000" height="200"><path d="M0 34L21.5 45.8C43 57.7 86 81.3 129 94.3C172 107.3 215 109.7 258 102.3C301 95 344 78 387 78.3C430 78.7 473 96.3 516 105.3C559 114.3 602 114.7 645 102.7C688 90.7 731 66.3 774 57C817 47.7 860 53.3 903 67.2C946 81 989 103 1032 115.3C1075 127.7 1118 130.3 1161 128C1204 125.7 1247 118.3 1290 110.2C1333 102 1376 93 1419 89.7C1462 86.3 1505 88.7 1548 101.5C1591 114.3 1634 137.7 1677 133.5C1720 129.3 1763 97.7 1806 82.2C1849 66.7 1892 67.3 1935.2 75.2C1978.3 83 2021.7 98 2064.8 99.3C2108 100.7 2151 88.3 2194 77.3C2237 66.3 2280 56.7 2323 50.7C2366 44.7 2409 42.3 2452 55.3C2495 68.3 2538 96.7 2581 101C2624 105.3 2667 85.7 2710 80C2753 74.3 2796 82.7 2839 79C2882 75.3 2925 59.7 2968 70.5C3011 81.3 3054 118.7 3097 121.5C3140 124.3 3183 92.7 3226 80C3269 67.3 3312 73.7 3355 89C3398 104.3 3441 128.7 3484 127.8C3527 127 3570 101 3613 87C3656 73 3699 71 3742 63.8C3785 56.7 3828 44.3 3871 45.7C3914 47 3957 62 3978.5 69.5L4000 77L4000 201L3978.5 201C3957 201 3914 201 3871 201C3828 201 3785 201 3742 201C3699 201 3656 201 3613 201C3570 201 3527 201 3484 201C3441 201 3398 201 3355 201C3312 201 3269 201 3226 201C3183 201 3140 201 3097 201C3054 201 3011 201 2968 201C2925 201 2882 201 2839 201C2796 201 2753 201 2710 201C2667 201 2624 201 2581 201C2538 201 2495 201 2452 201C2409 201 2366 201 2323 201C2280 201 2237 201 2194 201C2151 201 2108 201 2064.8 201C2021.7 201 1978.3 201 1935.2 201C1892 201 1849 201 1806 201C1763 201 1720 201 1677 201C1634 201 1591 201 1548 201C1505 201 1462 201 1419 201C1376 201 1333 201 1290 201C1247 201 1204 201 1161 201C1118 201 1075 201 1032 201C989 201 946 201 903 201C860 201 817 201 774 201C731 201 688 201 645 201C602 201 559 201 516 201C473 201 430 201 387 201C344 201 301 201 258 201C215 201 172 201 129 201C86 201 43 201 21.5 201L0 201Z" fill="#0F0F0F" stroke-linecap="round" stroke-linejoin="miter"></path></svg>